<?xml version="1.0" standalone="no"?><!DOCTYPE svg PUBLIC "-//W3C//DTD SVG 1.1//EN" "http://www.w3.org/Graphics/SVG/1.1/DTD/svg11.dtd"><svg t="1719217765823" class="icon" viewBox="0 0 1024 1024" version="1.1" xmlns="http://www.w3.org/2000/svg" p-id="14296" xmlns:xlink="http://www.w3.org/1999/xlink" width="200" height="200"><path d="M878.08 307.2c-79.36 0-145.92-71.68-145.92-153.6 0-84.48 66.56-153.6 145.92-153.6S1024 66.56 1024 153.6c0 84.48-66.56 153.6-145.92 153.6z m-171.52 601.6H286.72C271.36 972.8 215.04 1024 145.92 1024 66.56 1024 0 957.44 0 872.96c0-84.48 66.56-153.6 145.92-153.6 71.68 0 133.12 56.32 143.36 130.56h414.72c15.36 0 151.04-5.12 151.04-140.8 0-140.8-148.48-163.84-156.16-163.84H325.12c-71.68-10.24-207.36-66.56-207.36-222.72 0-158.72 135.68-199.68 207.36-199.68h46.08c15.36 2.56 25.6 15.36 25.6 30.72s-12.8 30.72-25.6 30.72h-46.08c-15.36 0-151.04 5.12-151.04 140.8 0 140.8 148.48 163.84 156.16 163.84h373.76c71.68 7.68 207.36 64 207.36 220.16s-133.12 199.68-204.8 199.68zM624.64 181.76h-122.88c-17.92 0-28.16-12.8-28.16-30.72s15.36-30.72 28.16-30.72h122.88c17.92 0 28.16 15.36 28.16 30.72 2.56 17.92-12.8 30.72-28.16 30.72z" p-id="14297" fill="#ec9b02"></path></svg>